<svg id="Capa_1" data-name="Capa 1" xmlns="http://www.w3.org/2000/svg" viewBox="0 0 80 78.83">
	<defs>
		<style>
			.cls-1{fill:#58565c;}
			.cls-2{fill:#ffd151;}
			.cls-3{fill:#f79b4a;}
			.cls-4{fill:#f27938;}
			.cls-5{fill:#bfbfbf;}
			.cls-6{fill:gray;}
		</style>
	</defs>
	<title>bell</title>
	<g id="botão">
		<path class="cls-1" d="M253.41,241.05h5.18v5.31s-2-.13-2.7-.13-2.48.13-2.48.13Z" transform="translate(-216 -216.58)"/>
		<path class="cls-2" d="M263.77,239.88H248.23a1.18,1.18,0,0,0,0,2.35h15.54a1.18,1.18,0,0,0,0-2.35Z" transform="translate(-216 -216.58)"/>
	</g>
	<g id="som">
		<path class="cls-2" d="M256,216.58a1.17,1.17,0,0,0-1.17,1.18v5.17a1.17,1.17,0,1,0,2.34,0v-5.17A1.17,1.17,0,0,0,256,216.58Z" transform="translate(-216 -216.58)"/>
		<path class="cls-2" d="M237.6,222.37a1.17,1.17,0,0,0-2,1.17l2.59,4.49a1.18,1.18,0,0,0,1,.58,1.22,1.22,0,0,0,.58-.15,1.18,1.18,0,0,0,.43-1.6Z" transform="translate(-216 -216.58)"/>
		<path class="cls-2" d="M227.44,238.74,223,236.16a1.16,1.16,0,0,0-1.6.42,1.18,1.18,0,0,0,.43,1.61l4.48,2.58a1.16,1.16,0,0,0,.59.16,1.17,1.17,0,0,0,.58-2.19Z" transform="translate(-216 -216.58)"/>
		<path class="cls-2" d="M222.35,255.41h-5.18a1.18,1.18,0,0,0,0,2.35h5.18a1.18,1.18,0,0,0,0-2.35Z" transform="translate(-216 -216.58)"/>
		<path class="cls-2" d="M294.83,255.41h-5.18a1.18,1.18,0,0,0,0,2.35h5.18a1.18,1.18,0,0,0,0-2.35Z" transform="translate(-216 -216.58)"/>
		<path class="cls-2" d="M290.64,236.58a1.16,1.16,0,0,0-1.6-.42l-4.48,2.58a1.17,1.17,0,0,0,.58,2.19,1.16,1.16,0,0,0,.59-.16l4.48-2.58A1.19,1.19,0,0,0,290.64,236.58Z" transform="translate(-216 -216.58)"/>
		<path class="cls-2" d="M276,221.94a1.17,1.17,0,0,0-1.6.43l-2.59,4.49a1.18,1.18,0,0,0,.43,1.6,1.22,1.22,0,0,0,.58.15,1.18,1.18,0,0,0,1-.58l2.59-4.49A1.18,1.18,0,0,0,276,221.94Z" transform="translate(-216 -216.58)"/>
	</g>
	<g id="sino"><rect class="cls-1" x="29.65" y="61.8" width="20.71" height="6.7"/>
		<path class="cls-2" d="M230.11,276.05v-3.93a25.89,25.89,0,1,1,51.77,0v3.93Z" transform="translate(-216 -216.58)"/>
		<path class="cls-3" d="M256,246.23c-.53,0-1.05,0-1.56.05a25.88,25.88,0,0,1,24.32,25.84v3.93h3.12v-3.93A25.88,25.88,0,0,0,256,246.23Z" transform="translate(-216 -216.58)"/>
		<path class="cls-3" d="M227.53,278.94v-3.3a.94.94,0,0,1,.93-.94h55.08a.94.94,0,0,1,.93.94v3.3a.94.94,0,0,1-.93.94H228.46A.94.94,0,0,1,227.53,278.94Z" transform="translate(-216 -216.58)"/>
		<path class="cls-4" d="M283.54,274.7h-3.13a.94.94,0,0,1,.94.94v3.3a.94.94,0,0,1-.94.94h3.13a.94.94,0,0,0,.93-.94v-3.3A.94.94,0,0,0,283.54,274.7Z" transform="translate(-216 -216.58)"/>
	</g>
	<g id="base">
		<path class="cls-5" d="M227.53,291.58V286a.94.94,0,0,1,.93-.94h55.08a.94.94,0,0,1,.93.94v5.58Z" transform="translate(-216 -216.58)"/>
		<path class="cls-6" d="M283.54,285.06h-3.13a.94.94,0,0,1,.94.94v5.59h3.12V286A.94.94,0,0,0,283.54,285.06Z" transform="translate(-216 -216.58)"/>
		<path class="cls-6" d="M286.33,290.24H225.52a.94.94,0,0,0-.84.51L223,294.06a.93.93,0,0,0,.84,1.35h63.29a.94.94,0,0,0,.91-1.16l-.83-3.3A.93.93,0,0,0,286.33,290.24Z" transform="translate(-216 -216.58)"/>
		<path class="cls-1" d="M288.06,294.25l-.82-3.3a.93.93,0,0,0-.91-.71H283.2a.92.92,0,0,1,.91.71l.83,3.3a.93.93,0,0,1-.91,1.16h3.13A.93.93,0,0,0,288.06,294.25Z" transform="translate(-216 -216.58)"/>
	</g>
</svg>